# xmcd
#
# Track frame offsets:
#	150
#	14078
#	29937
#	68626
#	93388
#	120373
#	148041
#	163909
#	191451
#	234814
#	251134
#	272579
#	320613
#	334240
#
# Disc length: 4660
#
# Revision: 1
# Processed by: cddbd v1.5.1PL0 Copyright (c) Steve Scherf et al.
# Submitted via: ExactAudioCopy v0.95a3
# Normalized: r0:TRMNUM
#
DISCID=cc12320e
DTITLE=Неизвестный исполнитель - Blues Album 2004
DYEAR=2004
DGENRE=Blues
TTITLE0=Double Trouble-In The Middle Of The Night
TTITLE1=Peter Green-I`m A Steady Rollin` Man
TTITLE2=B.B. King and Eric Clapton-Three O`Clock Blues
TTITLE3=Rick Derringer-You`ve Got To Love Her With Feeling
TTITLE4=Etta James-Miss You
TTITLE5=Pat Travers-I Love You More Than You`ll ever Now
TTITLE6=John Hiatt-Mr.Stanley
TTITLE7=Little Feat-It Taker A Lot To Laugh, It Takes A Train To City
TTITLE8=Gary Moore-Surrender
TTITLE9=John Lawton-Soldiers Of Fortune
TTITLE10=Willie Nelson-Sittin` on Top Of The World
TTITLE11=Rick Derringer-Somebody Loan Me A Dime
TTITLE12=Dr.Feelgood-Suzie Q
TTITLE13=John Lawton-Can`t Get You Out Of My Mind
EXTD=
EXTT0=
EXTT1=
EXTT2=
EXTT3=
EXTT4=
EXTT5=
EXTT6=
EXTT7=
EXTT8=
EXTT9=
EXTT10=
EXTT11=
EXTT12=
EXTT13=
PLAYORDER=
